<svg width="25" height="17" viewBox="0 0 25 17" fill="none" xmlns="http://www.w3.org/2000/svg">
<path d="M19.8044 9.68124L15.5703 13.914L15.5703 13.914C15.3486 14.1357 15.224 14.4364 15.224 14.75C15.224 15.0635 15.3486 15.3642 15.5703 15.586C15.792 15.8077 16.0927 15.9322 16.4062 15.9322C16.7198 15.9322 17.0205 15.8077 17.2422 15.586L23.4919 9.33631C23.6019 9.22659 23.6891 9.09623 23.7487 8.95272C23.8082 8.80921 23.8389 8.65537 23.8389 8.49999C23.8389 8.34461 23.8082 8.19077 23.7487 8.04726C23.6891 7.90375 23.6019 7.77339 23.4919 7.66367L17.2422 1.41402C17.0205 1.19231 16.7198 1.06775 16.4062 1.06775C16.0927 1.06775 15.792 1.19231 15.5703 1.41402C15.3486 1.63574 15.224 1.93644 15.224 2.24999C15.224 2.56354 15.3486 2.86425 15.5703 3.08596L15.5703 3.086L19.8044 7.31874L2.34375 7.31874C2.03046 7.31874 1.73001 7.44319 1.50848 7.66472L1.79018 7.94642L1.50848 7.66472C1.28695 7.88625 1.1625 8.1867 1.1625 8.49999C1.1625 8.81328 1.28695 9.11373 1.50848 9.33526C1.73001 9.55679 2.03046 9.68124 2.34375 9.68124H19.8044Z" fill="white" stroke="white" stroke-width="0.8"/>
</svg>
