<svg width="32" height="27" viewBox="0 0 32 27" fill="none" xmlns="http://www.w3.org/2000/svg">
<path d="M28 4.86752H22.6875V3.62234C22.6875 2.60356 22.3021 1.74514 21.5312 1.04708C20.7604 0.349028 19.8125 0 18.6875 0H13.3125C12.1875 0 11.2396 0.349028 10.4688 1.04708C9.69792 1.74514 9.3125 2.60356 9.3125 3.62234V4.86752H4C2.875 4.86752 1.92708 5.20712 1.15625 5.8863C0.385417 6.56549 0 7.43335 0 8.48986V13.3008C0 14.0932 0.4375 14.4894 1.3125 14.4894V24.1678C1.3125 24.8093 1.58333 25.3753 2.125 25.8658C2.66667 26.3563 3.29167 26.6016 4 26.6016H28C28.7083 26.6016 29.3333 26.3563 29.875 25.8658C30.4167 25.3753 30.6875 24.8093 30.6875 24.1678V14.4894C31.5625 14.4894 32 14.0932 32 13.3008V8.48986C32 7.43335 31.6146 6.56549 30.8438 5.8863C30.0729 5.20712 29.125 4.86752 28 4.86752ZM12 3.62234C12 3.28275 12.125 2.99975 12.375 2.77336C12.625 2.54696 12.9375 2.43376 13.3125 2.43376H18.6875C19.0625 2.43376 19.375 2.54696 19.625 2.77336C19.875 2.99975 20 3.28275 20 3.62234V4.86752H12V3.62234ZM4 24.1678V14.4894H12V18.1117C12 18.7909 12.2604 19.3663 12.7812 19.838C13.3021 20.3096 13.9375 20.5455 14.6875 20.5455H17.3125C18.0625 20.5455 18.6979 20.3096 19.2188 19.838C19.7396 19.3663 20 18.7909 20 18.1117V14.4894H28V24.1678H4ZM14.6875 18.1117V14.4894H17.3125V18.1117H14.6875ZM29.3125 12.1122H2.6875V8.48986C2.6875 7.65974 3.125 7.24468 4 7.24468H28C28.875 7.24468 29.3125 7.65974 29.3125 8.48986V12.1122Z" fill="white"/>
</svg>
